<?xml version="1.0" encoding="utf-8"?>
<!-- Generator: Adobe Illustrator 24.1.3, SVG Export Plug-In . SVG Version: 6.00 Build 0)  -->
<svg version="1.1" id="Layer_1" xmlns="http://www.w3.org/2000/svg" xmlns:xlink="http://www.w3.org/1999/xlink" x="0px" y="0px"
	 viewBox="0 0 744 768" style="enable-background:new 0 0 744 768;" xml:space="preserve">
<path d="M653.11,171.03h-58.4V67.16L365.02,0.47L2.65,159.22v225.27l98.66,292.57L367.13,768l233.68-80.22l143.11-244.33
	L653.11,171.03z M534.22,112.59v58.61h-66.58V93.26L534.22,112.59z M369.21,64.68l37.93,11.01v95.51h-77.89V82.19L369.21,64.68z
	 M268.76,108.69v202.43l-77.89,12.9V142.81L268.76,108.69z M130.37,169.32v164.73l-67.22,11.14V198.77L130.37,169.32z
	 M559.95,637.85l-192.85,66.2l-218-74.58L73.35,404.81l239.71-39.71l4.01,14.43h75.11l-58.33,139.98l55.84,23.27l68.02-163.25h83.28
	v-60.5H363.05L338.8,231.7h225.64v-0.17h45.07l68.34,205.03L559.95,637.85z"/>
</svg>
