<?xml version="1.0" encoding="utf-8"?>
<!-- Generator: Adobe Illustrator 24.1.3, SVG Export Plug-In . SVG Version: 6.00 Build 0)  -->
<svg version="1.1" xmlns="http://www.w3.org/2000/svg" xmlns:xlink="http://www.w3.org/1999/xlink" x="0px" y="0px"
	 viewBox="0 0 17.64 18" style="enable-background:new 0 0 17.64 18;" xml:space="preserve">
<style type="text/css">
	.st0{display:none;}
	.st1{clip-path:url(#SVGID_5_);}
	.st2{clip-path:url(#SVGID_6_);}
	.st3{clip-path:url(#SVGID_7_);}
	.st4{display:inline;}
	.st5{display:inline;clip-path:url(#SVGID_13_);}
	.st6{display:inline;clip-path:url(#SVGID_14_);}
	.st7{display:inline;clip-path:url(#SVGID_15_);}
	.st8{display:inline;clip-path:url(#SVGID_16_);fill:#FFFFFF;}
	.st9{clip-path:url(#SVGID_19_);}
	.st10{clip-path:url(#SVGID_20_);fill:#3E82F1;}
	.st11{clip-path:url(#SVGID_24_);}
	.st12{clip-path:url(#SVGID_25_);}
	.st13{clip-path:url(#SVGID_26_);fill:#32A753;}
	.st14{clip-path:url(#SVGID_30_);}
	.st15{clip-path:url(#SVGID_31_);}
	.st16{clip-path:url(#SVGID_32_);fill:#F9BB00;}
	.st17{clip-path:url(#SVGID_36_);}
	.st18{clip-path:url(#SVGID_37_);}
	.st19{clip-path:url(#SVGID_38_);fill:#E74235;}
</style>
<g id="Layer_2" class="st0">
</g>
<g id="Layer_1">
	<g>
		<defs>
			<rect id="SVGID_1_" x="-14" y="-14" width="46" height="46"/>
		</defs>
		<defs>
			<path id="SVGID_2_" d="M-9-11c-1.1,0-2,0.89-2,2V27c0,1.1,0.89,2,2,2H27c1.1,0,2-0.89,2-2V-9c0-1.1-0.89-2-2-2H-9L-9-11z M-9-11"
				/>
		</defs>
		<defs>
			<path id="SVGID_3_" d="M-15-15h48v48h-48V-15z M-15-15"/>
		</defs>
		<defs>
			<rect id="SVGID_4_" x="-14" y="-760" width="612" height="792"/>
		</defs>
		<clipPath id="SVGID_5_">
			<use xlink:href="#SVGID_1_"  style="overflow:visible;"/>
		</clipPath>
		<clipPath id="SVGID_6_" class="st1">
			<use xlink:href="#SVGID_2_"  style="overflow:visible;"/>
		</clipPath>
		<clipPath id="SVGID_7_" class="st2">
			<use xlink:href="#SVGID_3_"  style="overflow:visible;"/>
		</clipPath>
		<clipPath id="SVGID_8_" class="st3">
			<use xlink:href="#SVGID_4_"  style="overflow:visible;"/>
		</clipPath>
	</g>
	<g class="st0">
		<defs>
			<rect id="SVGID_9_" x="-14" y="-14" width="46" height="46"/>
		</defs>
		<defs>
			<path id="SVGID_10_" d="M-9-10c-0.55,0-1,0.45-1,1V27c0,0.55,0.45,1,1,1H27c0.55,0,1-0.45,1-1V-9c0-0.55-0.45-1-1-1H-9L-9-10z
				 M-9-10"/>
		</defs>
		<defs>
			<path id="SVGID_11_" d="M-15-15h48v48h-48V-15z M-15-15"/>
		</defs>
		<defs>
			<rect id="SVGID_12_" x="-14" y="-760" width="612" height="792"/>
		</defs>
		<clipPath id="SVGID_13_" class="st4">
			<use xlink:href="#SVGID_9_"  style="overflow:visible;"/>
		</clipPath>
		<clipPath id="SVGID_14_" class="st5">
			<use xlink:href="#SVGID_10_"  style="overflow:visible;"/>
		</clipPath>
		<clipPath id="SVGID_15_" class="st6">
			<use xlink:href="#SVGID_11_"  style="overflow:visible;"/>
		</clipPath>
		<clipPath id="SVGID_16_" class="st7">
			<use xlink:href="#SVGID_12_"  style="overflow:visible;"/>
		</clipPath>
		<rect x="-15" y="-15" class="st8" width="48" height="48"/>
	</g>
	<g>
		<defs>
			<path id="SVGID_17_" d="M17.64,9.2c0-0.64-0.06-1.25-0.16-1.84H9v3.48h4.84c-0.21,1.12-0.84,2.08-1.8,2.72v2.26h2.91
				C16.66,14.25,17.64,11.95,17.64,9.2L17.64,9.2L17.64,9.2z M17.64,9.2"/>
		</defs>
		<defs>
			<rect id="SVGID_18_" x="-14" y="-760" width="612" height="792"/>
		</defs>
		<clipPath id="SVGID_19_">
			<use xlink:href="#SVGID_17_"  style="overflow:visible;"/>
		</clipPath>
		<clipPath id="SVGID_20_" class="st9">
			<use xlink:href="#SVGID_18_"  style="overflow:visible;"/>
		</clipPath>
		<rect x="4" y="2.36" class="st10" width="18.64" height="18.46"/>
	</g>
	<g>
		<defs>
			<path id="SVGID_21_" d="M9,18c2.43,0,4.47-0.81,5.96-2.18l-2.91-2.26c-0.81,0.54-1.84,0.86-3.05,0.86
				c-2.34,0-4.33-1.58-5.04-3.71H0.96v2.33C2.44,15.98,5.48,18,9,18L9,18L9,18z M9,18"/>
		</defs>
		<defs>
			<path id="SVGID_22_" d="M-15-15h48v48h-48V-15z M-15-15"/>
		</defs>
		<defs>
			<rect id="SVGID_23_" x="-14" y="-760" width="612" height="792"/>
		</defs>
		<clipPath id="SVGID_24_">
			<use xlink:href="#SVGID_21_"  style="overflow:visible;"/>
		</clipPath>
		<clipPath id="SVGID_25_" class="st11">
			<use xlink:href="#SVGID_22_"  style="overflow:visible;"/>
		</clipPath>
		<clipPath id="SVGID_26_" class="st12">
			<use xlink:href="#SVGID_23_"  style="overflow:visible;"/>
		</clipPath>
		<rect x="-4.04" y="5.71" class="st13" width="24" height="17.29"/>
	</g>
	<g>
		<defs>
			<path id="SVGID_27_" d="M3.96,10.71C3.78,10.17,3.68,9.59,3.68,9c0-0.59,0.1-1.17,0.28-1.71V4.96H0.96C0.35,6.17,0,7.55,0,9
				s0.35,2.83,0.96,4.04L3.96,10.71L3.96,10.71L3.96,10.71z M3.96,10.71"/>
		</defs>
		<defs>
			<path id="SVGID_28_" d="M-15-15h48v48h-48V-15z M-15-15"/>
		</defs>
		<defs>
			<rect id="SVGID_29_" x="-14" y="-760" width="612" height="792"/>
		</defs>
		<clipPath id="SVGID_30_">
			<use xlink:href="#SVGID_27_"  style="overflow:visible;"/>
		</clipPath>
		<clipPath id="SVGID_31_" class="st14">
			<use xlink:href="#SVGID_28_"  style="overflow:visible;"/>
		</clipPath>
		<clipPath id="SVGID_32_" class="st15">
			<use xlink:href="#SVGID_29_"  style="overflow:visible;"/>
		</clipPath>
		<rect x="-5" y="-0.04" class="st16" width="13.96" height="18.08"/>
	</g>
	<g>
		<defs>
			<path id="SVGID_33_" d="M9,3.58c1.32,0,2.51,0.45,3.44,1.35l2.58-2.58C13.46,0.89,11.43,0,9,0C5.48,0,2.44,2.02,0.96,4.96
				l3.01,2.33C4.67,5.16,6.66,3.58,9,3.58L9,3.58L9,3.58z M9,3.58"/>
		</defs>
		<defs>
			<path id="SVGID_34_" d="M-15-15h48v48h-48V-15z M-15-15"/>
		</defs>
		<defs>
			<rect id="SVGID_35_" x="-14" y="-760" width="612" height="792"/>
		</defs>
		<clipPath id="SVGID_36_">
			<use xlink:href="#SVGID_33_"  style="overflow:visible;"/>
		</clipPath>
		<clipPath id="SVGID_37_" class="st17">
			<use xlink:href="#SVGID_34_"  style="overflow:visible;"/>
		</clipPath>
		<clipPath id="SVGID_38_" class="st18">
			<use xlink:href="#SVGID_35_"  style="overflow:visible;"/>
		</clipPath>
		<rect x="-4.04" y="-5" class="st19" width="24.06" height="17.29"/>
	</g>
</g>
</svg>
